<svg width="44" height="44" viewBox="0 0 44 44" fill="none" xmlns="http://www.w3.org/2000/svg">
<rect x="4" y="4" width="36" height="36" rx="18" fill="#0077FF"/>
<path d="M12 21.6C12 17.0745 12 14.8118 13.4059 13.4059C14.8118 12 17.0745 12 21.6 12H22.4C26.9255 12 29.1882 12 30.5941 13.4059C32 14.8118 32 17.0745 32 21.6V22.4C32 26.9255 32 29.1882 30.5941 30.5941C29.1882 32 26.9255 32 22.4 32H21.6C17.0745 32 14.8118 32 13.4059 30.5941C12 29.1882 12 26.9255 12 22.4V21.6Z" fill="white"/>
<path d="M22.6417 26.4085C18.0834 26.4085 15.4834 23.2835 15.3751 18.0835H17.6584C17.7334 21.9002 19.4167 23.5168 20.75 23.8502V18.0835H22.9001V21.3752C24.2168 21.2335 25.5999 19.7335 26.0666 18.0835H28.2166C27.8583 20.1168 26.3583 21.6168 25.2916 22.2335C26.3583 22.7335 28.0667 24.0418 28.7167 26.4085H26.35C25.8416 24.8252 24.5751 23.6002 22.9001 23.4335V26.4085H22.6417Z" fill="#0077FF"/>
<rect x="1" y="1" width="42" height="42" rx="21" stroke="#0077FF" stroke-width="2"/>
</svg>
