<svg width="44" height="44" viewBox="0 0 44 44" fill="none" xmlns="http://www.w3.org/2000/svg">
<rect x="4" y="4" width="36" height="36" rx="18" fill="url(#paint0_linear_166_1855)"/>
<path d="M22 14.7389C24.3649 14.7389 24.6449 14.7479 25.5789 14.7905C26.4424 14.8299 26.9114 14.9742 27.2235 15.0955C27.6082 15.2374 27.9561 15.4638 28.2418 15.758C28.536 16.0437 28.7624 16.3916 28.9043 16.7763C29.0256 17.0884 29.1699 17.5574 29.2093 18.4209C29.2519 19.3548 29.2609 19.6349 29.2609 21.9998C29.2609 24.3647 29.2519 24.6447 29.2093 25.5787C29.1699 26.4422 29.0256 26.9111 28.9043 27.2232C28.757 27.6052 28.5313 27.9521 28.2418 28.2416C27.9523 28.531 27.6054 28.7567 27.2235 28.9041C26.9114 29.0254 26.4424 29.1696 25.5789 29.209C24.6452 29.2516 24.3651 29.2607 22 29.2607C19.635 29.2607 19.355 29.2516 18.4211 29.209C17.5576 29.1696 17.0887 29.0253 16.7766 28.9041C16.3919 28.7621 16.0439 28.5357 15.7582 28.2416C15.4641 27.9559 15.2377 27.6079 15.0957 27.2232C14.9744 26.9111 14.8302 26.4422 14.7908 25.5787C14.7482 24.6448 14.7391 24.3647 14.7391 21.9998C14.7391 19.6349 14.7482 19.3549 14.7908 18.4209C14.8302 17.5574 14.9744 17.0884 15.0957 16.7763C15.2377 16.3916 15.4641 16.0436 15.7583 15.758C16.044 15.4638 16.392 15.2374 16.7767 15.0954C17.0887 14.9741 17.5577 14.8299 18.4212 14.7905C19.3551 14.7479 19.6352 14.7388 22.0001 14.7388L22 14.7389ZM22.0001 13.1431C19.5948 13.1431 19.2931 13.1533 18.3486 13.1964C17.4058 13.2394 16.7621 13.3891 16.1987 13.608C15.6078 13.8304 15.0724 14.179 14.6301 14.6296C14.1794 15.0719 13.8307 15.6073 13.6082 16.1983C13.3895 16.7616 13.2398 17.4054 13.1969 18.3481C13.1536 19.2926 13.1434 19.5943 13.1434 21.9997C13.1434 24.405 13.1536 24.7067 13.1969 25.6512C13.2399 26.5939 13.3896 27.2377 13.6086 27.801C13.831 28.392 14.1796 28.9273 14.6301 29.3697C15.0725 29.8203 15.6078 30.1689 16.1988 30.3913C16.7622 30.6102 17.406 30.7599 18.3486 30.8029C19.2933 30.846 19.5949 30.8562 22.0002 30.8562C24.4055 30.8562 24.7072 30.846 25.6517 30.8029C26.5944 30.7599 27.2382 30.6102 27.8016 30.3913C28.3899 30.1637 28.9242 29.8158 29.3702 29.3697C29.8163 28.9237 30.1642 28.3894 30.3918 27.801C30.6107 27.2377 30.7604 26.5939 30.8034 25.6512C30.8465 24.7066 30.8567 24.4049 30.8567 21.9997C30.8567 19.5944 30.8465 19.2926 30.8034 18.3481C30.7604 17.4054 30.6107 16.7616 30.3918 16.1983C30.1694 15.6073 29.8208 15.072 29.3702 14.6296C28.9278 14.179 28.3925 13.8303 27.8014 13.6079C27.2381 13.3891 26.5943 13.2394 25.6516 13.1965C24.7071 13.1533 24.4054 13.1431 22 13.1431H22.0001Z" fill="white"/>
<path d="M22 17.4521C21.1005 17.4521 20.2212 17.7189 19.4733 18.2186C18.7254 18.7184 18.1425 19.4287 17.7982 20.2597C17.454 21.0907 17.3639 22.0052 17.5394 22.8874C17.7149 23.7696 18.1481 24.58 18.7841 25.216C19.4202 25.8521 20.2305 26.2853 21.1127 26.4607C21.995 26.6362 22.9094 26.5462 23.7405 26.2019C24.5715 25.8577 25.2818 25.2748 25.7815 24.5269C26.2813 23.779 26.548 22.8996 26.548 22.0001C26.548 20.7939 26.0688 19.6371 25.2159 18.7842C24.363 17.9313 23.2062 17.4521 22 17.4521ZM22 24.9523C21.4161 24.9523 20.8454 24.7792 20.3599 24.4548C19.8744 24.1304 19.496 23.6693 19.2726 23.1299C19.0491 22.5904 18.9907 21.9968 19.1046 21.4242C19.2185 20.8515 19.4997 20.3255 19.9126 19.9126C20.3254 19.4998 20.8515 19.2186 21.4241 19.1047C21.9968 18.9908 22.5904 19.0492 23.1298 19.2727C23.6692 19.4961 24.1303 19.8745 24.4547 20.36C24.7791 20.8455 24.9522 21.4163 24.9522 22.0001C24.9522 22.7831 24.6412 23.534 24.0875 24.0876C23.5339 24.6413 22.783 24.9523 22 24.9523Z" fill="white"/>
<path d="M26.7277 18.335C27.3146 18.335 27.7905 17.8592 27.7905 17.2722C27.7905 16.6853 27.3146 16.2095 26.7277 16.2095C26.1407 16.2095 25.6649 16.6853 25.6649 17.2722C25.6649 17.8592 26.1407 18.335 26.7277 18.335Z" fill="white"/>
<rect x="1" y="1" width="42" height="42" rx="21" stroke="url(#paint1_linear_166_1855)" stroke-width="2"/>
<defs>
<linearGradient id="paint0_linear_166_1855" x1="40" y1="4" x2="4" y2="40" gradientUnits="userSpaceOnUse">
<stop stop-color="#0142E5"/>
<stop offset="0.328125" stop-color="#F9239D"/>
<stop offset="0.677083" stop-color="#FE4A30"/>
<stop offset="1" stop-color="#FFC94F"/>
</linearGradient>
<linearGradient id="paint1_linear_166_1855" x1="44" y1="0" x2="0" y2="44" gradientUnits="userSpaceOnUse">
<stop stop-color="#8F31BD"/>
<stop offset="1" stop-color="#FF863F"/>
</linearGradient>
</defs>
</svg>
