<svg width="44" height="44" viewBox="0 0 44 44" fill="none" xmlns="http://www.w3.org/2000/svg">
<rect x="4" y="4" width="36" height="36" rx="18" fill="#FF0000"/>
<path d="M32.4 16.5454C32.1353 15.5665 31.3716 14.8 30.3927 14.5381C29.0778 14.0305 16.3418 13.7818 12.6473 14.5527C11.6684 14.8174 10.9018 15.5811 10.64 16.56C10.0465 19.1636 10.0015 24.7927 10.6545 27.4545C10.9193 28.4334 11.6829 29.2 12.6618 29.4618C15.2655 30.0611 27.6436 30.1454 30.4073 29.4618C31.3862 29.1971 32.1527 28.4334 32.4145 27.4545C33.0473 24.6181 33.0924 19.3381 32.4 16.5454Z" fill="white"/>
<path d="M25.2727 21.9998L19.3382 18.5962V25.4035L25.2727 21.9998Z" fill="#FF0000"/>
<rect x="1" y="1" width="42" height="42" rx="21" stroke="#FF0000" stroke-width="2"/>
</svg>
