<svg width="64" height="24" viewBox="0 0 64 24" fill="none" xmlns="http://www.w3.org/2000/svg">
<path d="M15.5301 11.5543C16.8963 11.9725 17.9423 12.6547 18.6681 13.6011C19.3939 14.5475 19.7568 15.7139 19.7568 17.1004C19.7568 19.1472 18.999 20.7428 17.4833 21.8872C15.989 23.0316 13.8436 23.6039 11.0472 23.6039H0V0.495185H10.4388C13.0431 0.495185 15.0711 1.01238 16.5227 2.04677C17.9743 3.08116 18.7001 4.55571 18.7001 6.47043C18.7001 7.61486 18.4226 8.62724 17.8676 9.50757C17.3126 10.3659 16.5334 11.0481 15.5301 11.5543ZM5.15534 10.0688H9.99048C11.1219 10.0688 11.9758 9.83769 12.5521 9.37552C13.1285 8.89133 13.4167 8.18707 13.4167 7.26272C13.4167 6.36039 13.1178 5.66713 12.5201 5.18294C11.9437 4.69876 11.1005 4.45667 9.99048 4.45667H5.15534V10.0688ZM10.855 19.6424C13.2886 19.6424 14.5054 18.652 14.5054 16.6713C14.5054 14.7565 13.2886 13.7992 10.855 13.7992H5.15534V19.6424H10.855Z" fill="#DA251C"/>
<path d="M34.4581 24C32.1739 24 30.1033 23.4938 28.2461 22.4814C26.4102 21.447 24.9586 20.0275 23.8912 18.2228C22.8452 16.3961 22.3222 14.3384 22.3222 12.0495C22.3222 9.76066 22.8452 7.71389 23.8912 5.90922C24.9586 4.08253 26.4102 2.663 28.2461 1.65062C30.1033 0.616232 32.1846 0.0990378 34.4901 0.0990378C36.4327 0.0990378 38.1832 0.45117 39.7415 1.15543C41.3212 1.8597 42.6447 2.87208 43.7121 4.19257L40.3819 7.36176C38.8663 5.55708 36.9877 4.65475 34.7463 4.65475C33.3587 4.65475 32.1206 4.97387 31.0319 5.6121C29.9432 6.22834 29.0893 7.09766 28.4702 8.22008C27.8725 9.3425 27.5736 10.619 27.5736 12.0495C27.5736 13.4801 27.8725 14.7565 28.4702 15.879C29.0893 17.0014 29.9432 17.8817 31.0319 18.5199C32.1206 19.1362 33.3587 19.4443 34.7463 19.4443C36.9877 19.4443 38.8663 18.531 40.3819 16.7043L43.7121 19.8735C42.6447 21.216 41.3212 22.2393 39.7415 22.9436C38.1618 23.6479 36.4007 24 34.4581 24Z" fill="#DA251C"/>
<path d="M59.8373 11.5543C61.1395 12.0165 62.1535 12.7428 62.8793 13.7331C63.6264 14.7015 64 15.8349 64 17.1334C64 18.542 63.5517 19.7634 62.6551 20.7978C61.7585 21.8322 60.5418 22.6245 59.0048 23.1747C57.4891 23.7249 55.824 24 54.0095 24C52.4725 24 50.9355 23.8019 49.3985 23.4058C47.8829 23.0096 46.4419 22.4044 45.0757 21.5901L46.6768 17.7607C47.6587 18.3769 48.7368 18.8501 49.9109 19.1802C51.1063 19.4883 52.2697 19.6424 53.4011 19.6424C54.9381 19.6424 56.2083 19.3563 57.2116 18.784C58.2363 18.2118 58.7486 17.4085 58.7486 16.3741C58.7486 15.5158 58.3964 14.8666 57.6919 14.4264C57.0088 13.9862 56.0695 13.7662 54.8741 13.7662H49.3985V9.73865H54.4898C55.5358 9.73865 56.347 9.51857 56.9234 9.0784C57.5211 8.63824 57.82 8.03301 57.82 7.26272C57.82 6.36039 57.3931 5.65612 56.5392 5.14993C55.7066 4.64374 54.6286 4.39065 53.3051 4.39065C52.3231 4.39065 51.3091 4.5337 50.2631 4.81981C49.2171 5.08391 48.2244 5.49106 47.2852 6.04127L45.7161 1.8817C48.0857 0.627235 50.6473 0 53.4011 0C55.1516 0 56.7633 0.264099 58.2363 0.792297C59.7092 1.32049 60.8833 2.09078 61.7585 3.10316C62.6338 4.11554 63.0714 5.29298 63.0714 6.63549C63.0714 7.7359 62.7832 8.71527 62.2068 9.57359C61.6305 10.4319 60.8406 11.0922 59.8373 11.5543Z" fill="#DA251C"/>
</svg>
