<svg width="136" height="70" viewBox="0 0 136 70" fill="none" xmlns="http://www.w3.org/2000/svg">
<rect width="136" height="70" rx="10" fill="#DA251C"/>
<path d="M47.4126 34.4429C49.1204 34.9656 50.4279 35.8184 51.3351 37.0014C52.2424 38.1843 52.696 39.6424 52.696 41.3755C52.696 43.934 51.7487 45.9285 49.8542 47.359C47.9863 48.7895 45.3046 49.5048 41.809 49.5048H28V20.619H41.0485C44.3039 20.619 46.8389 21.2655 48.6534 22.5585C50.4679 23.8514 51.3752 25.6946 51.3752 28.088C51.3752 29.5186 51.0283 30.784 50.3345 31.8845C49.6407 32.9574 48.6667 33.8102 47.4126 34.4429ZM34.4442 32.586H40.4881C41.9023 32.586 42.9697 32.2971 43.6902 31.7194C44.4106 31.1142 44.7709 30.2338 44.7709 29.0784C44.7709 27.9505 44.3973 27.0839 43.6501 26.4787C42.9297 25.8735 41.8757 25.5708 40.4881 25.5708H34.4442V32.586ZM41.5688 44.553C44.6108 44.553 46.1318 43.315 46.1318 40.8391C46.1318 38.4457 44.6108 37.249 41.5688 37.249H34.4442V44.553H41.5688Z" fill="white"/>
<path d="M71.0726 50C68.2174 50 65.6291 49.3673 63.3076 48.1018C61.0128 46.8088 59.1983 45.0344 57.8641 42.7785C56.5565 40.4952 55.9028 37.923 55.9028 35.0619C55.9028 32.2008 56.5565 29.6424 57.8641 27.3865C59.1983 25.1032 61.0128 23.3287 63.3076 22.0633C65.6291 20.7703 68.2308 20.1238 71.1126 20.1238C73.5409 20.1238 75.729 20.564 77.6769 21.4443C79.6515 22.3246 81.3059 23.5901 82.6401 25.2407L78.4774 29.2022C76.5829 26.9464 74.2347 25.8184 71.4329 25.8184C69.6984 25.8184 68.1507 26.2173 66.7898 27.0151C65.429 27.7854 64.3616 28.8721 63.5878 30.2751C62.8406 31.6781 62.467 33.2737 62.467 35.0619C62.467 36.8501 62.8406 38.4457 63.5878 39.8487C64.3616 41.2517 65.429 42.3521 66.7898 43.1499C68.1507 43.9202 69.6984 44.3054 71.4329 44.3054C74.2347 44.3054 76.5829 43.1637 78.4774 40.8803L82.6401 44.8418C81.3059 46.5199 79.6515 47.7992 77.6769 48.6795C75.7023 49.5598 73.5009 50 71.0726 50Z" fill="white"/>
<path d="M102.797 34.4429C104.424 35.0206 105.692 35.9285 106.599 37.1664C107.533 38.3769 108 39.7937 108 41.4168C108 43.1774 107.44 44.7043 106.319 45.9972C105.198 47.2902 103.677 48.2806 101.756 48.9684C99.8614 49.6561 97.78 50 95.5119 50C93.5907 50 91.6694 49.7524 89.7482 49.2572C87.8536 48.762 86.0524 48.0055 84.3447 46.9876L86.346 42.2008C87.5734 42.9711 88.921 43.5626 90.3886 43.9752C91.8829 44.3604 93.3372 44.553 94.7514 44.553C96.6727 44.553 98.2604 44.1953 99.5145 43.4801C100.795 42.7648 101.436 41.7607 101.436 40.4677C101.436 39.3948 100.995 38.5832 100.115 38.033C99.261 37.4828 98.0869 37.2077 96.5926 37.2077H89.7482V32.1733H96.1123C97.4198 32.1733 98.4338 31.8982 99.1543 31.348C99.9014 30.7978 100.275 30.0413 100.275 29.0784C100.275 27.9505 99.7413 27.0702 98.674 26.4374C97.6333 25.8047 96.2857 25.4883 94.6313 25.4883C93.4039 25.4883 92.1364 25.6671 90.8289 26.0248C89.5214 26.3549 88.2805 26.8638 87.1065 27.5516L85.1452 22.3521C88.1071 20.784 91.3092 20 94.7514 20C96.9395 20 98.9541 20.3301 100.795 20.9904C102.637 21.6506 104.104 22.6135 105.198 23.879C106.292 25.1444 106.839 26.6162 106.839 28.2944C106.839 29.6699 106.479 30.8941 105.759 31.967C105.038 33.0399 104.051 33.8652 102.797 34.4429Z" fill="white"/>
</svg>
