<svg width="125" height="36" viewBox="0 0 125 36" fill="none" xmlns="http://www.w3.org/2000/svg">
<g clip-path="url(#clip0_67_798)">
<path d="M52.9349 23.9675C52.9349 25.0643 52.4993 25.4836 51.4272 25.4836H47.6413V21.7417H51.4272C52.4993 21.7417 52.9349 22.2578 52.9349 23.2578V23.9675ZM51.4272 19.29H43.5205V21.5804L44.9277 21.7739V30.9354H47.6413V27.9352H51.4272C54.543 27.9352 55.6152 26.4191 55.6152 24.0643V23.1611C55.6152 20.9353 54.61 19.29 51.4272 19.29ZM109.823 19.29H110.828V30.9354H108.114V22.6769L102.519 30.9354H99.4036V19.29H102.117V27.2595L106.205 21.161C107.243 19.6126 108.148 19.29 109.823 19.29ZM33.2351 5.06403H40.6392V6.51559C40.6392 7.67695 40.5387 8.64462 40.2706 9.51564H37.959V7.51561H33.2351C31.8279 7.51561 31.4928 7.87051 31.4928 9.35442V12.4189C31.4928 13.9028 31.8279 14.2577 33.2351 14.2577H40.6392V16.7093H33.2351C29.7843 16.7093 28.7792 15.7416 28.7792 12.4189V9.35442C28.7792 5.99948 29.7843 5.06403 33.2351 5.06403ZM108.114 5.06403H110.828V16.7093H108.114V12.0318H102.117V16.7093H99.4036V5.06403H102.117V9.5802H108.114V5.06403ZM36.5854 28.4838H31.8948V26.2256H36.5854C37.49 26.2256 37.825 26.645 37.825 27.3223C37.825 27.9998 37.49 28.4838 36.5854 28.4838ZM37.2888 22.7739C37.2888 23.4837 36.9205 23.8707 35.9823 23.8707H31.8948V21.7739H35.9823C36.9205 21.7739 37.2888 22.0965 37.2888 22.7739ZM38.8382 24.7814C39.4742 24.4077 40.0027 23.6133 40.0027 22.3868C40.0027 20.8061 39.0646 19.29 36.2838 19.29H29.1812V30.9354H36.5519C39.232 30.9354 40.5387 29.6128 40.5387 27.4514C40.5387 25.9981 39.6719 25.1416 38.8382 24.7814ZM89.6207 19.29H97.0918V20.7417C97.0918 21.9031 96.9914 22.8707 96.7232 23.7417H94.4116V21.7417H89.6207C88.2136 21.7417 87.8786 22.0965 87.8786 23.5804V26.645C87.8786 28.1289 88.2136 28.4838 89.6207 28.4838H97.0918V30.9354H89.6207C86.1699 30.9354 85.1647 29.9676 85.1647 26.645V23.5804C85.1647 20.2255 86.1699 19.29 89.6207 19.29ZM66.738 26.645C66.738 28.1289 66.403 28.4838 64.996 28.4838H61.7797C60.3725 28.4838 60.0375 28.1289 60.0375 26.645V23.5804C60.0375 22.0965 60.3725 21.7417 61.7797 21.7417H64.996C66.403 21.7417 66.738 22.0965 66.738 23.5804V26.645ZM64.996 19.29H61.7797C58.3288 19.29 57.3238 20.2255 57.3238 23.5804V26.645C57.3238 29.9676 58.3288 30.9354 61.7797 30.9354H64.996C68.4803 30.9354 69.4519 29.9676 69.4519 26.645V23.5804C69.4519 20.2255 68.4803 19.29 64.996 19.29ZM46.9775 7.51561H51.7623V13.9028H45.9576C46.3286 13.2788 46.4851 12.4088 46.6028 11.2899L46.9775 7.51561ZM54.4759 5.06403H44.5926L43.9896 10.9673C43.6881 13.7738 43.2524 14.2254 42.4483 14.2254H42.2809V17.8061H44.8606L44.9612 16.3222H52.9349L53.0354 17.8061H55.6152V14.1932H54.4759V5.06403ZM75.8174 19.29H83.2551V20.7417C83.2551 21.9031 83.1546 22.8707 82.8865 23.7417H80.5749V21.7417H75.8174C74.4102 21.7417 74.0752 22.0965 74.0752 23.5804V26.645C74.0752 28.1289 74.4102 28.4838 75.8174 28.4838H83.2551V30.9354H75.8174C72.3666 30.9354 71.3615 29.9676 71.3615 26.645V23.5804C71.3615 20.2255 72.3666 19.29 75.8174 19.29ZM122.286 12.4189C122.286 13.9028 121.951 14.2577 120.544 14.2577H117.562C116.155 14.2577 115.82 13.9028 115.82 12.4189V9.35442C115.82 7.87051 116.155 7.51561 117.562 7.51561H120.544C121.951 7.51561 122.286 7.87051 122.286 9.35442V12.4189ZM120.544 5.06403H117.562C114.111 5.06403 113.106 5.99948 113.106 9.35442V12.4189C113.106 15.7416 114.446 16.7093 117.897 16.7093H120.209C123.693 16.7093 125 15.7416 125 12.4189V9.35442C125 5.99948 124.028 5.06403 120.544 5.06403ZM57.5248 12.4189V9.35442C57.5248 5.99948 58.4963 5.06403 61.9807 5.06403H69.0833V7.51561H61.8466C60.4395 7.51561 60.2385 7.74139 60.2385 9.2253V9.61242H67.1066V12.0318H60.2385V12.548C60.2385 14.0319 60.4395 14.2577 61.8466 14.2577H69.1839V16.7093H61.9807C58.4963 16.7093 57.5248 15.7416 57.5248 12.4189ZM89.8887 7.51561H94.1436V10.3867H88.1466V9.35442C88.1466 8.03185 88.3141 7.51561 89.8887 7.51561ZM88.1466 12.806H94.1436V16.7093H96.8573V5.06403H89.8887C86.4714 5.06403 85.4328 5.96726 85.4328 9.35442V16.7093H88.1466V12.806ZM15.9809 19.29H18.6947V30.9354H10.0175C6.53304 30.9354 5.2265 29.6773 5.2265 26.3225V19.29H7.94018V26.3869C7.94018 27.8709 8.54327 28.4838 9.95042 28.4838H15.9809V19.29ZM2.61317 2.51554H21.308V33.4839H2.61317V2.51554ZM0 35.9999H23.9212V-0.000606537H0V35.9999ZM70.8256 16.7093V14.2254C71.9311 14.2254 72.1991 13.5803 72.4337 11.4189L73.1707 5.06403H82.8865V16.7093H80.1729V7.51561H75.4933L75.0134 11.9673C74.6114 15.8061 73.5392 16.8384 70.8256 16.7093ZM123.794 19.29H124.799V30.9354H122.085V22.6769L116.49 30.9354H113.374V19.29H116.088V27.2595L120.175 21.161C121.214 19.6126 122.119 19.29 123.794 19.29ZM14.6409 10.1609H7.94018V7.51561H14.6409C15.6458 7.51561 16.1149 8.03185 16.1149 8.80596C16.1149 9.5802 15.7129 10.1609 14.6409 10.1609ZM18.8288 8.51562C18.8288 6.58016 17.8572 5.06403 15.0093 5.06403H5.2265V16.7093H7.94018V12.6125H14.2053C15.6125 12.6125 15.9809 12.9996 15.9809 14.3545V16.7093H18.6947V13.935C18.6947 12.5513 18.1849 11.7395 17.0525 11.4634C18.2306 11.08 18.8288 9.98317 18.8288 8.51562Z" fill="white" fill-opacity="0.6"/>
</g>
<defs>
<clipPath id="clip0_67_798">
<rect width="125" height="36" fill="white"/>
</clipPath>
</defs>
</svg>
